<?xml version="1.0" encoding="UTF-8"?>
<svg id="Layer_2" data-name="Layer 2" xmlns="http://www.w3.org/2000/svg" viewBox="0 0 267.34 262.66">
  <defs>
    <style>
      .cls-1 {
        fill: #f3f3f3;
      }

      .cls-1, .cls-2, .cls-3, .cls-4, .cls-5, .cls-6, .cls-7, .cls-8, .cls-9, .cls-10, .cls-11, .cls-12, .cls-13, .cls-14, .cls-15, .cls-16, .cls-17, .cls-18, .cls-19, .cls-20, .cls-21, .cls-22, .cls-23, .cls-24, .cls-25, .cls-26, .cls-27, .cls-28, .cls-29, .cls-30, .cls-31, .cls-32, .cls-33, .cls-34, .cls-35, .cls-36, .cls-37, .cls-38, .cls-39, .cls-40, .cls-41, .cls-42, .cls-43, .cls-44 {
        stroke-width: 0px;
      }

      .cls-2 {
        fill: #f89d45;
      }

      .cls-3 {
        fill: #f89e4f;
      }

      .cls-4 {
        fill: #f4933f;
      }

      .cls-5 {
        fill: #f89a46;
      }

      .cls-6 {
        fill: #776256;
      }

      .cls-7 {
        fill: #766252;
      }

      .cls-8 {
        fill: #4f4743;
      }

      .cls-9 {
        fill: #564a42;
      }

      .cls-10 {
        fill: #594c46;
      }

      .cls-11 {
        fill: #3d3531;
      }

      .cls-12 {
        fill: #3e3735;
      }

      .cls-13 {
        fill: #070607;
      }

      .cls-14 {
        fill: #080809;
      }

      .cls-15 {
        fill: #211e1e;
      }

      .cls-16 {
        fill: #c48a63;
      }

      .cls-17 {
        fill: #cc8a5d;
      }

      .cls-18 {
        fill: #ad7e5f;
      }

      .cls-19 {
        fill: #db925d;
      }

      .cls-20 {
        fill: #db8f57;
      }

      .cls-21 {
        fill: #c1855d;
      }

      .cls-22 {
        fill: #c07f53;
      }

      .cls-23 {
        fill: #a57d64;
      }

      .cls-24 {
        fill: #b37d5a;
      }

      .cls-25 {
        fill: #d88a53;
      }

      .cls-26 {
        fill: #b28263;
      }

      .cls-27 {
        fill: #cf9168;
      }

      .cls-28 {
        fill: #b8825f;
      }

      .cls-29 {
        fill: #866e60;
      }

      .cls-30 {
        fill: #332f2e;
      }

      .cls-31 {
        fill: #8f715e;
      }

      .cls-32 {
        fill: #927866;
      }

      .cls-33 {
        fill: #a0775c;
      }

      .cls-34 {
        fill: #94735c;
      }

      .cls-35 {
        fill: #997761;
      }

      .cls-36 {
        fill: #68584c;
      }

      .cls-37 {
        fill: #e58c47;
      }

      .cls-38 {
        fill: #e59559;
      }

      .cls-39 {
        fill: #f19c56;
      }

      .cls-40 {
        fill: #f29a4e;
      }

      .cls-41 {
        fill: #e99452;
      }

      .cls-42 {
        fill: #f6973b;
      }

      .cls-43 {
        fill: #040404;
      }

      .cls-44 {
        fill: #6a594f;
      }
    </style>
  </defs>
  <g id="Layer_1-2" data-name="Layer 1">
    <g>
      <path class="cls-43" d="M183.22,138.01c-17.63,0-35.26-.04-52.9.05-2.1.01-2.74-.52-2.63-2.62.17-3.24.2-6.51-.04-9.74-.18-2.44.54-3.13,3.01-3.11,13.46.11,26.91.02,40.37.01,21.62-.02,43.25,0,64.87-.09,2.21,0,3.12.44,2.98,2.84-.2,3.42-.15,6.87,0,10.3.09,1.98-.58,2.46-2.5,2.45-17.72-.07-35.45-.04-53.17-.04v-.05Z"/>
      <path class="cls-43" d="M175.58,134.05c0-17.63.04-35.26-.05-52.9-.01-2.1.52-2.74,2.62-2.63,3.24.17,6.51.2,9.74-.04,2.44-.18,3.13.54,3.11,3.01-.11,13.46-.02,26.91-.01,40.37.02,21.62,0,43.25.09,64.87,0,2.21-.44,3.12-2.84,2.98-3.42-.2-6.87-.15-10.3,0-1.98.09-2.46-.58-2.45-2.5.07-17.72.04-35.45.04-53.17h.05Z"/>
      <g>
        <path class="cls-3" d="M264.15,202.88c0,17.39,0,34.78,0,52.17-.54,6.62-5.31,6.16-10.02,6.16-51.97-.04-103.94.04-155.9-.05-29.69-.05-59.38.39-89.07-.27-4.01-5.42-1.5-9.87,7.06-12.53,63.84-.49,127.68-.05,191.52-.24,13.53-.04,27.06.4,40.57-.27,1.88-1.02,2.01-2.84,1.99-4.64-.15-13.05.54-26.1-.37-39.14,4.44-4,9.4-1.79,14.23-1.18Z"/>
        <path class="cls-2" d="M219.58,224.31c3.25-.11,6.53.07,9.73-.38,6.73-.94,8.41,2.16,7.02,8.09-.6,3.09-1.18,5.44-5.58,5.42-64.45-.18-128.89-.09-193.34-.14-1.26,0-2.58.09-4.05-2.28,6.65-1.95,13.25-4.06,17.53-9.78,53.47-.37,106.95-.04,160.42-.2,2.76,0,5.63.72,8.28-.74Z"/>
        <path class="cls-1" d="M249.68,248.8c-74.13-.01-148.25.03-222.38-.19-4.12-.01-8.18,2.15-12.31.33-4.21-7.92-1.51-16.4-2.01-24.63-.47-9.81.26-19.62.01-29.43-.27-22.45,0-44.89,0-67.33.05-22.92.02-45.84,0-68.75-.05-9.2.11-18.4.03-27.6-.11-3.83.37-7.69-.6-11.49-1-5.78,2.11-7.92,7.29-8.26,2.3-.15,4.61-.16,6.91-.16,69.9,0,139.8-.02,209.7,0,15.66,0,16.41.81,16.47,16.49.02,5.38-.04,10.75.06,16.13.11,5.64,2.54,8.12,8.25,6.26,3.1-2.13,2.43-5.38,2.44-8.36.05-10.95-.02-21.89.05-32.84.02-3.02-.41-6.16,1.62-8.83,2.53,1.03,2.03,3.29,2.03,5.25.03,14.59-.12,29.18.1,43.76.07,4.68-1.56,6.16-6.21,6.24-12.34.21-12.34.42-12.33-11.55,0-7.42-.19-14.85.07-22.26.16-4.51-1.19-6.34-6.04-6.33-73.45.12-146.91.14-220.36,0-5.92-.01-5.77,3.2-5.77,7.33.05,41.21.02,82.41.02,123.62,0,30.97.14,61.94-.12,92.9-.05,6.1,1.27,8.41,7.95,8.39,72.17-.23,144.35-.21,216.52-.02,5.96.02,8.18-1.49,7.84-7.71-.51-9.19-.14-18.42-.14-27.63,0-11.87,3.44-13.94,15.38-9.24-4.64.6-9.57-1.72-13.97,1.36,1.14,14.87,2.17,29.74-.5,44.57Z"/>
        <path class="cls-1" d="M27.81,237.97c-2.88-1.71-1.83-4.56-1.83-6.95-.07-66.34.02-132.69-.22-199.03-.02-6.25,1.97-7.72,7.89-7.7,66.09.19,132.18.27,198.26-.04,7.85-.04,7.57,3.73,7.9,9.34.39,6.76-2.39,7.98-8.45,7.96-62.76-.19-125.52-.13-188.27-.13-.63-1-.45-1.81.54-2.45,4.08-2.13,8.51-1.51,12.82-1.51,55.07-.05,110.14-.03,165.2-.03,2.82,0,5.64.12,8.44-.21,2.8-.33,4.98-1.29,4.87-4.68-.1-3.12-2.31-3.62-4.72-3.9-1.78-.21-3.58-.17-5.37-.17-61.21,0-122.43-.02-183.64.01-10.3,0-10.4.17-11.36,8.94-.46,3.73.16,7.49-.21,11.22-.13,3.19.21,6.39-.03,9.58-.03,3.17.22,6.35,0,9.53-.04,4.58.26,9.15.09,13.73-.31,6.48.26,12.95.05,19.43-.37,2.77.12,5.55-.07,8.32-.38,5.56.26,11.12.04,16.68-.34,5.59.32,11.19-.07,16.78.1,3.78.23,7.55.04,11.33.28,11.05-.16,22.11.04,33.16.42,7.64-.41,15.28-.03,22.92.35,5.64-.4,11.28-.02,16.93-.03,3.75.58,7.61-1.89,10.94Z"/>
        <path class="cls-5" d="M7.49,259.64c82.25,0,164.49,0,246.74.04,4.13,0,8.26.44,9.91-4.64.88,4.58.79,7.64-5.65,7.62-84.69-.18-169.37-.11-254.06-.13-1,0-2-.32-3-.5-1.62-2.88-.49-6.02-.83-9.02.18-4.39-.38-8.8.33-13.18,5.37,0,3.47,4.34,4.02,7.03.87,4.25-1.13,9.07,2.54,12.78Z"/>
        <path class="cls-40" d="M27.81,237.97c.03-3.58.05-7.17.08-10.75-1.11-9.54,5.71-7.14,10.88-7.22,1.04.31,1.9.88,2.57,1.73.54.85.82,1.91,1.83,2.42.43-.13.84-.08,1.23.16,1.74,1.71,4.38-.16,6.13,1.53-2.54,2.44-2.29,5.32-.58,9.12h-15.72c2.82,2.3,4.87,1.58,6.75,1.58,62.08.05,124.16.01,186.25.11,4.07,0,7.53-.21,9.12-4.63,1.05,4.49-.22,6.3-5.31,6.29-67.74-.23-135.47-.26-203.21-.34Z"/>
        <path class="cls-20" d="M43.17,224.16c-.66-.52-1.33-1.04-1.99-1.56-2.86-4.93-2.41-10.36-1.51-15.5.66-3.74.79-7.42.93-11.15-.21,2.51.05,5.03-.15,7.55-3.47,3.58-6.78,2.92-10.46.58-.47,1.42,2.36,5.11-2.09,6.23,0-7.69,0-15.37,0-23.06.68-1.95.39-3.98.36-5.96-.06-3-.25-5.5,4.31-4.41,5.3,1.27,5.1-3.38,6.06-6.59,1.23-12.06.25-24.14.54-36.2.12-3.55-.16-7.1-.09-10.65.31-4.2.08-8.41.2-12.61.06-1.61.22-3.21.83-4.73.35-.76.93-1.24,1.74-1.45.18,26.32.27,52.63.58,78.95.16,13.52-.95,27.07.75,40.57Z"/>
        <path class="cls-30" d="M265.2.14c1.29,17.16.34,34.34.6,51.5.02,1.11-.43,1.9-1.64,2.05-2.62-2.96-2.39-6.63-2.42-10.19-.09-10.48-.16-20.96.01-31.43.1-5.87-2.31-8.35-8.15-8.21-6.64.16-13.29.03-19.93.02-76.93-.04-153.85.08-230.78-.05-1.02-.03-1.96-.33-2.82-.89C-.44-.43,1.99.03,3.97.02c5.63-.03,11.27,0,16.9,0,81.44.04,162.89.08,244.33.12Z"/>
        <path class="cls-42" d="M50.52,225.84c-2.11-.24-4.52.71-6.13-1.53,9.17-.11,18.34-.32,27.51-.33,46.43-.04,92.86-.04,139.28-.03,2.8,0,5.59.23,8.39.35-2.54,2.62-5.81,1.46-8.73,1.46-53.44.08-106.88.06-160.33.07Z"/>
        <path class="cls-27" d="M1.41,239.76c-.03,4.57-.06,9.14-.09,13.71-.33-.02-.67-.03-1.01-.05-.09-26.58-.25-53.15-.24-79.73.01-30.15.18-60.31.27-90.46.92-.39,1.6-.14,2.05.76,1.44,3.28.78,6.78,1.11,10.18-.11,3.1-.05,6.2-.03,9.3.02,7.39-.1,14.77.1,22.16.25,2.83,0,5.65-.07,8.47,0,10.5-.13,21.01.1,31.51.36,5.25-.23,10.49-.1,15.73.03,8.12.38,16.23.16,24.35-.35,6.2.32,12.41-.04,18.61-.51,5.19,1.51,10.75-2.22,15.48Z"/>
        <path class="cls-32" d="M41.83,104.64s-.38-.18-.38-.18c-3.44-3.56-2.14-8.05-2.43-12.24.45-5.57-.2-11.15-.01-16.72.31-4.1.17-8.2.04-12.3.35-4.02-.05-8.04.03-12.06.27-2.65-.07-5.33.44-7.97.64-1.56.77-3.7,3.39-3.07-.02.45.04.89.18,1.32-.26,17.78-.5,35.56-.79,53.35-.05,3.29-.31,6.58-.47,9.88Z"/>
        <path class="cls-1" d="M182.45,22.63h-39.34c4.68-3.63,8.5-2.58,12.62-1.88,4.46.76,9.09.56,13.65.65,4.29.09,8.58.02,12.87.02.07.4.13.81.2,1.21Z"/>
        <path class="cls-29" d="M1.22,83.05c-.31-.02-.6.04-.88.17-.09-15.47-.18-30.95-.27-46.42.9-.41,1.6-.2,2.13.64.88,1.53,1.07,3.22,1.15,4.94.09,4.29.06,8.58.1,12.87-.01,3.07-.01,6.14,0,9.21-.02,3.15,0,6.29,0,9.44-.24,3.17.57,6.6-2.25,9.14Z"/>
        <path class="cls-8" d="M1.17,36.95c-.36-.07-.73-.12-1.1-.15,0-11.29,0-22.57-.01-33.86.39.02.79.05,1.18.08,3.98,4.82,2.07,10.57,2.4,15.93.19,3.24-.24,6.51-.07,9.78,0,2.97.11,5.98-2.4,8.21Z"/>
        <path class="cls-39" d="M1.41,239.76c-.01-5.16-.02-10.33-.04-15.49,3.34-1.31,7.19.16,10.45-2.62,2.34-2,2.3,1.16,2.88,2.51.1,8.26.19,16.52.29,24.78-2.16,3.81-7.38,5.47-7.5,10.7-3.8.33-4.5-1.78-4.71-5.12-.3-4.92,1.6-10.09-1.38-14.76Z"/>
        <path class="cls-4" d="M249.68,248.8c.17-14.85.33-29.71.5-44.56,2.7,2.17,1.62,5.2,1.65,7.88.12,9.98.1,19.96,0,29.95-.02,2.38,1.02,5.28-2.14,6.74Z"/>
        <path class="cls-14" d="M1.54,28.95c-.1-8.64-.19-17.28-.29-25.92C3.54.57,6.54,1.58,9.23,1.57c81.91-.04,163.83.08,245.74-.17,7.35-.02,9.68,1.81,9.37,9.3-.6,14.31-.18,28.66-.18,43q-13.63,1.21-13.64-12.2c0-6.65-.48-13.35.1-19.95.56-6.43-2.15-7.47-7.85-7.45-56.3.2-112.6.14-168.9.16-18.42,0-36.85.15-55.27,0-4.83-.04-6.02,1.42-3.61,5.61-1.21,1.46.05,3.61-1.39,5.01-4.73-.74-8.42,1.59-12.07,4.06Z"/>
        <path class="cls-16" d="M1.44,181.29c.02-5.21.04-10.41.05-15.62,1.58-4.43-.11-9.1.97-13.56,4.14-2.84,7.39-1.87,9.92.33-1.04-3.78-.9-9.58-.85-15.38.2-2.85-.19-5.79,1.18-8.47.48-.76,1.18-1.12,2.07-1.09-.06,22.52-.12,45.03-.19,67.55-.75.25-1.35.05-1.8-.59-1.77-4.72-1.05-9.56-.69-14.38.04-.53.16-1.01.09-1.45-.14.21-.29.42-.46.66-2.48,2.21-6.21-.81-8.48,2.13-.64.37-1.26.34-1.84-.13Z"/>
        <path class="cls-38" d="M13.64,195.08c.32,0,.65,0,.97-.03.03,9.7.06,19.41.09,29.11-.73-.51-1.45-1.03-2.18-1.54-2.94,5.8-7.16,3.02-11.16,1.65.01-6.13.02-12.26.03-18.4,3.12.5,6.25,1.42,9.31-.21,2.57-3.1-.49-7.76,2.94-10.59Z"/>
        <path class="cls-8" d="M1.66,64.41c0-3.15-.01-6.31-.02-9.46,1.19-2.01-.35-4.62,1.4-6.51,3.49-1.99,6.76-1.21,10.22,1.2-1.35-1.87-1.58-3.57-1.64-5.33.01-2.38-.06-4.75-.02-7.13.09-2.06.15-4.14,1.24-5.99.55-.79,1.26-.97,2.13-.56-.02,9.26-.04,18.51-.06,27.77-.44.99-.86,1.99-2.21,1.93-3.09-.75-6.62-3.35-8.22,2-.22.68-.55,1.3-.96,1.88-.57.53-1.19.6-1.86.21Z"/>
        <path class="cls-23" d="M13.73,59.9c.39-.51.78-1.01,1.18-1.51-.03,23.04-.07,46.07-.1,69.11,0,0-.56,0-.56,0h-.56c-.31-.31-.62-.63-.94-.95-1.88-4.24-.93-8.76-1.28-13.15.22-3.99-.02-7.98-.05-11.96.24-3.12.07-6.25,0-9.38.31-4.05-.11-8.1-.03-12.15.36-4.08-.1-8.16.02-12.24.28-2.73.01-5.63,2.32-7.76Z"/>
        <path class="cls-12" d="M14.97,30.62c-.41.03-.83.05-1.25.07-1.86-2.04-1.92-4.12-.11-6.23.1-1.64-.23-3.4,1.38-4.59,0,3.58-.02,7.16-.03,10.74Z"/>
        <path class="cls-13" d="M42.91,40.09c-1.81-.03-1.67,1.46-2.01,2.58-5.32,1.28-10.1.89-13.27-4.36-.8-13.01-.8-12.95,12.09-12.93,63.97.12,127.95.19,191.92.39,2.23,0,5.82-1.67,6.53,1.8.75,3.68.88,7.81-.06,11.39-.57,2.17-4.15,1.03-6.35,1.04-36.59.04-73.19,0-109.78,0-26.35,0-52.71.06-79.06.09Z"/>
        <path class="cls-17" d="M39.77,172.03c-.69,8.16-2.15,9.06-9.98,6.01-2.03,2.77.59,6.56-1.91,9.21-.01-11.18-.02-22.36-.03-33.53,3.29,3.98,9.87.71,12.67,5.77-.38,4.18.79,8.44-.75,12.54Z"/>
        <path class="cls-34" d="M40.96,91.64c.16,4.27.32,8.55.49,12.82-.09,1.49-.19,2.98-.29,4.47-3.56-1.73-6.38-5.13-11.1-4.22-1.89.37-1.56-2.18-2.36-3.32-.01-6.66-.03-13.33-.04-19.99,1.89-1.05,1.23,1.9,2.89,1.72,9.41-.99,9.45-.9,10.4,8.52Z"/>
        <path class="cls-7" d="M40.96,91.64c-1.71-5.54-3.56-10.82-10.87-5.7-.81-1.51-1.62-3.03-2.43-4.54,0-4.62-.01-9.23-.02-13.85.75-.25,1.58.19,2.21,0q10.22-3.03,11.05,7.35c.02,5.58.04,11.16.06,16.74Z"/>
        <path class="cls-41" d="M27.89,210.31c2.05-2.1.51-4.91,1.67-7.86,2.96,3.38,6.86.3,10.2,1.87,1.19,5.63,1.2,11.26,0,16.89-3.33-2-6.74,5.08-10.04-.09-1.59,1.74.22,4.5-1.82,6.11,0-5.64,0-11.28,0-16.92Z"/>
        <path class="cls-18" d="M41.16,122.71c-.01,3.69-.03,7.39-.04,11.08-.68.31-1.32.24-1.94-.17-1.87-1.83-4.2-3.22-6.69-2.81-4.29.71-4.14-2.25-4.72-4.81-.02-5.64-.04-11.27-.05-16.91,4.06.83,2.28,3.48,1.78,5.73,2.08-2.71,5.07-2.26,7.68-1.67,5.53,1.24,2.04,6.6,3.98,9.56Z"/>
        <path class="cls-28" d="M27.77,126c1.02,4.59,5.41,3.15,7.85,3.38,3.42.31,4.44,1.15,4.15,4.25,1.46,2.9.57,5.96.57,8.96-4.06,5.51-8.27,3.71-12.51.25-.02-5.61-.04-11.22-.05-16.83Z"/>
        <path class="cls-21" d="M27.82,142.83c3.98-.03,7.96,3.18,11.94.01,1.22,5.12,1.23,10.24,0,15.36-4.11-1.12-10.42,3.6-11.91-4.49,0-3.63-.02-7.26-.03-10.89Z"/>
        <path class="cls-33" d="M41.16,122.71c-1.08-5.74-3.21-9.94-10.42-8.07-.5.13-1.99-3.61-3.03-5.55,0-2.57,0-5.14,0-7.71,1.21.65,1.66,2.67,3.68,1.9,5.51-2.08,8.23.78,9.78,5.64,0,4.59,0,9.19,0,13.78Z"/>
        <path class="cls-36" d="M40.91,74.9c-.85-7.42-3.88-10.47-11.06-5.65-.24.16-1.44-1.1-2.2-1.7,0-3.08,0-6.16,0-9.24,1.3-.84,2.74-1.32,4.22-1.73,7.47-2.08,8.03-1.71,9.01,6.01.01,4.1.02,8.2.03,12.3Z"/>
        <path class="cls-9" d="M40.88,62.6c-1.02-4.68-3.19-7.05-8.19-4.33-1.57.85-3.35,1.15-5.04.05,0-3.08,0-6.15,0-9.23,2.68-1.63,5.78-1.68,8.72-2.34,2.98-.67,4.11,1.03,4.53,3.6,0,4.08-.01,8.16-.02,12.25Z"/>
        <path class="cls-11" d="M40.9,50.35c-1.46-1.82-2.83-2.61-5.53-1.72-2.31.77-5.07,2.08-7.72.45,0-3.59-.01-7.18-.02-10.77,3.83,3.25,9.01,2.43,13.27,4.36,0,2.56,0,5.12,0,7.67Z"/>
        <path class="cls-37" d="M39.75,221.21c0-5.63,0-11.26,0-16.89,0-4.5,0-9,0-13.5.47,0,.94,0,1.41-.01,0,10.6,0,21.19,0,31.79-.47-.46-.95-.93-1.42-1.39Z"/>
        <path class="cls-22" d="M39.76,158.2c0-5.12,0-10.24,0-15.36,0-3.07,0-6.14,0-9.22.46,0,.91.05,1.36.16.04,10.88.1,21.75.11,32.63,0,1.98.41,4.11-1.47,5.61,0-4.61,0-9.22,0-13.83Z"/>
        <path class="cls-19" d="M12.1,207.38c-3.55-.66-7.99,5.08-10.7-1.5.01-8.2.03-16.39.04-24.59.48-.02.97-.03,1.45-.03,1.73,1.48,3.27,3.14,6.02,2.42,2.29-.6,4.11.06,3.96,3.01-.44,6.9.87,13.85-.76,20.69Z"/>
        <path class="cls-23" d="M13.67,127.5c-.01,3.07-.02,6.13-.04,9.2-3.03-3.58-7.35,1.23-10.49-1.62-.58-.41-1.15-.85-1.69-1.32v-7.95c1.8-3.02-.52-6.71,1.57-9.69,8.21-.91,9.45.05,9.82,7.69.06,1.25-.1,2.52.76,3.59l.08.11Z"/>
        <path class="cls-31" d="M2.89,116.71c-.51,3.03,1.2,6.41-1.43,9.1-.03-7.64-.05-15.27-.08-22.91,1.74-2.12-.29-5.43,2.69-7.36,4.94-3.2,8.06-1.43,9.55,5.78,0,4.08-.01,8.17-.02,12.25-.5.25-.96.25-1.38.01-2.51-1.41-1.34-6.96-5.48-5.87-3.51.92-1.17,5.44-2.91,7.85-.29.4-.57.81-.94,1.15Z"/>
        <path class="cls-29" d="M13.61,101.32c-2.74-.71.32-5.92-4.72-5.45-4.85.45-5.9,3.76-7.52,7.03.02-3.14.05-6.28.07-9.42,1.62-2.43-.16-5.42,1.29-7.88,8.97-1.54,9.33-1.33,10.85,6.44,0,3.09.01,6.19.02,9.28Z"/>
        <path class="cls-24" d="M1.45,133.76c.47-.09.95-.13,1.43-.12,3.44,6.14,3.44,12.28,0,18.42-.69,4.52,1.47,9.33-1.4,13.62-.01-10.64-.03-21.28-.04-31.92Z"/>
        <path class="cls-44" d="M2.89,85.97c-.42,2.51,1.02,5.38-1.45,7.5-.07-3.48-.14-6.95-.22-10.42.15-3.16.3-6.33.45-9.5.45-.02.89-.05,1.34-.07.29.34.57.68.87,1.02,1.44,3.97,1.73,7.85-.99,11.46Z"/>
        <path class="cls-15" d="M13.62,24.47c.03,2.07.07,4.15.11,6.23-.06,2-.11,4-.17,6-3.13.77-7.79-3.28-9.17,2.93-.24.67-.6,1.27-1.05,1.82-.64.44-1.26.39-1.86-.09-.1-1.47-.19-2.94-.29-4.41.12-2.67.24-5.33.36-8,2.01-6.93,6.41-7.41,12.08-4.48Z"/>
        <path class="cls-30" d="M1.47,41.36c.47.02.94.03,1.41.03,2.32,2.56,1.92,5.13,0,7.7-.25,1.99.7,4.24-1.25,5.86-.06-4.53-.11-9.06-.17-13.59Z"/>
        <path class="cls-10" d="M2.86,73.65c-.4,0-.8-.03-1.19-.09,0-3.05-.01-6.09-.02-9.14.41.02.82.03,1.23.03,2.52,3.07,2.53,6.14-.02,9.2Z"/>
        <path class="cls-26" d="M2.89,152.06c0-6.14,0-12.28,0-18.42,3.1,2.73,8.59-2.97,10.75,3.06v18.96c-3.11-3.74-6.95-3.6-10.75-3.59Z"/>
        <path class="cls-27" d="M12.08,184.33c-3.18-.68-9.18,7.06-9.19-3.08.23-1.71-.8-4.35,2.85-3.32,2.03.57,4.17,1.72,6.34.27,1.16,2.04,1.15,4.08,0,6.13Z"/>
        <path class="cls-25" d="M12.08,184.33c0-2.04,0-4.08,0-6.13.05-.24.05-.5.15-.73.32-.77,1.27-1.05,1.29-.24.17,5.94.11,11.89.13,17.84-.09,4.06-.17,8.12-.29,12.17,0,.14-.34.37-.54.38-.23.01-.47-.16-.71-.25,0-7.68-.02-15.36-.02-23.04Z"/>
        <path class="cls-44" d="M2.86,73.65c0-3.07.02-6.13.02-9.2.01-.5.02-1.01.01-1.51,4.95-1.66,9.65-2.73,10.76,4.6-.02,4.08-.04,8.16-.07,12.24-3.57-2.02-7.15-4.01-10.69-6.08l-.04-.04Z"/>
        <path class="cls-12" d="M2.89,49.09c0-2.57,0-5.13,0-7.7,4.6-2.82,8.45-2.92,10.63,2.96.99,4.79-.1,6.99-5.47,4.83-1.49-.6-3.42-.09-5.15-.1Z"/>
        <path class="cls-30" d="M13.51,44.35c-2.71-3.98-6.85-2.82-10.63-2.96.5-2.5-1.42-5.93,2.05-7.29,3.29-1.3,6.36-.32,8.62,2.59-.02,2.55-.03,5.11-.05,7.66Z"/>
        <path class="cls-10" d="M13.66,67.54c-1.49-6.43-7.74-1.74-10.76-4.6.3-2.11-.94-4.91,2.1-5.86,3.46-1.09,6.46-.1,8.73,2.82-.02,2.55-.05,5.09-.07,7.63Z"/>
        <path class="cls-35" d="M2.89,116.71c0-2.02-.26-4.08.07-6.05.35-2.04-1.83-5.58,2.7-5.58,3.49,0,6.75.42,6.47,5.2-.08,1.32.32,2.48,1.46,3.29,0,4.61,0,9.22.01,13.83-1.7-5.44-2.65-11.63-10.71-10.69Z"/>
        <path class="cls-6" d="M2.9,73.69c4.47.44,9.72-.51,10.69,6.08,0,4.09,0,8.18,0,12.27-1.43-5.79-6-6.05-10.7-6.07,0-4.09,0-8.19.01-12.28Z"/>
      </g>
    </g>
  </g>
</svg>