<?xml version="1.0" encoding="UTF-8"?>
<svg id="Layer_2" data-name="Layer 2" xmlns="http://www.w3.org/2000/svg" viewBox="0 0 903.82 362.96">
  <defs>
    <style>
      .cls-1 {
        fill: #f3f3f3;
      }

      .cls-1, .cls-2, .cls-3, .cls-4, .cls-5, .cls-6, .cls-7, .cls-8, .cls-9, .cls-10, .cls-11, .cls-12, .cls-13, .cls-14, .cls-15, .cls-16, .cls-17, .cls-18, .cls-19, .cls-20, .cls-21, .cls-22, .cls-23, .cls-24, .cls-25, .cls-26, .cls-27, .cls-28, .cls-29, .cls-30, .cls-31, .cls-32, .cls-33, .cls-34, .cls-35, .cls-36, .cls-37, .cls-38, .cls-39, .cls-40, .cls-41, .cls-42, .cls-43, .cls-44, .cls-45, .cls-46, .cls-47 {
        stroke-width: 0px;
      }

      .cls-2 {
        fill: #f89d45;
      }

      .cls-3 {
        fill: #f89e4f;
      }

      .cls-4 {
        fill: #f4933f;
      }

      .cls-5 {
        fill: #f89a46;
      }

      .cls-6 {
        fill: #776256;
      }

      .cls-7 {
        fill: #766252;
      }

      .cls-8 {
        fill: #4f4743;
      }

      .cls-9 {
        fill: #564a42;
      }

      .cls-10 {
        fill: #594c46;
      }

      .cls-11 {
        fill: #3d3531;
      }

      .cls-12 {
        fill: #3e3735;
      }

      .cls-13 {
        fill: #070607;
      }

      .cls-14 {
        fill: #080809;
      }

      .cls-15 {
        fill: #211e1e;
      }

      .cls-16 {
        fill: #c48a63;
      }

      .cls-17 {
        fill: #cc8a5d;
      }

      .cls-18 {
        fill: #ad7e5f;
      }

      .cls-19 {
        fill: #db925d;
      }

      .cls-20 {
        fill: #db8f57;
      }

      .cls-21 {
        fill: #c1855d;
      }

      .cls-22 {
        fill: #c07f53;
      }

      .cls-23 {
        fill: #a57d64;
      }

      .cls-24 {
        fill: #b37d5a;
      }

      .cls-25 {
        fill: #d88a53;
      }

      .cls-26 {
        fill: #b28263;
      }

      .cls-27 {
        fill: #cf9168;
      }

      .cls-28 {
        fill: #b8825f;
      }

      .cls-29 {
        fill: #866e60;
      }

      .cls-30 {
        fill: #332f2e;
      }

      .cls-31 {
        fill: #8f715e;
      }

      .cls-32 {
        fill: #927866;
      }

      .cls-33 {
        fill: #a0775c;
      }

      .cls-34 {
        fill: #94735c;
      }

      .cls-35 {
        fill: #997761;
      }

      .cls-36 {
        fill: #68584c;
      }

      .cls-37 {
        fill: #fff;
      }

      .cls-38 {
        fill: #e58c47;
      }

      .cls-39 {
        fill: #e59559;
      }

      .cls-40 {
        fill: #f19c56;
      }

      .cls-41 {
        fill: #f29a4e;
      }

      .cls-42 {
        fill: #e99452;
      }

      .cls-43 {
        fill: #f6973b;
      }

      .cls-44 {
        fill: #040405;
      }

      .cls-45 {
        fill: #040404;
      }

      .cls-46 {
        fill: #040304;
      }

      .cls-47 {
        fill: #6a594f;
      }
    </style>
  </defs>
  <g id="Layer_1-2" data-name="Layer 1">
    <g id="_7myUhC" data-name="7myUhC">
      <g>
        <path class="cls-45" d="M557.08,318.32c5.33-12.16,10.17-23.24,15.04-34.29,12.52-28.41,25.1-56.78,37.5-85.25,1.3-2.98,2.95-3.89,5.98-3.79,4.99.18,10.01.22,14.99-.07,3.48-.2,4.51.88,4.49,4.42-.13,23.33-.03,46.65,0,69.98.02,28.49-.09,56.98.19,85.47.05,4.64-1.34,5.6-5.56,5.32-5.31-.36-10.67-.28-15.99-.01-3.29.17-4.21-.82-4.2-4.15.09-31.32,0-62.65-.04-93.97,0-.82,0-1.65,0-2.82-1.89.99-2.14,2.72-2.77,4.07-14.53,30.79-29.03,61.59-43.44,92.44-1.28,2.73-2.32,4.58-6.02,4.54-3.54-.04-4.8-1.53-6.12-4.37-14.18-30.58-28.49-61.09-42.78-91.62-.83-1.76-1.74-3.49-3.73-5.1,0,2.9,0,5.8,0,8.7.06,28.99.04,57.98.27,86.97.03,3.99-.69,5.65-5.09,5.31-5.46-.43-11-.31-16.48-.01-3.41.18-4.12-1.08-4.09-4.22.12-14.99,0-29.99-.02-44.99-.03-36.99,0-73.98-.15-110.97-.02-3.75.67-5.35,4.82-5.01,4.97.4,10.03.49,14.97-.04,4.21-.45,5.8,1.5,7.25,4.88,16.32,38.16,32.72,76.28,49.11,114.41.46,1.06.95,2.11,1.88,4.18Z"/>
        <path class="cls-46" d="M617.34,170.12c-10.47,0-20.42-.12-30.37.07-3,.06-3.53-2.05-4.45-3.86-8.74-17.17-17.52-34.31-26.02-51.6-1.7-3.46-3.5-4.8-7.5-4.69-12.48.34-24.98.24-37.48.1-3.22-.04-4.25.84-4.21,4.2.2,17.16.04,34.32.24,51.47.04,3.47-.86,4.56-4.41,4.43-7.15-.28-14.33-.18-21.48.01-2.82.08-3.59-.79-3.58-3.62.06-53.97.02-107.94-.08-161.91,0-2.54.57-3.52,3.28-3.49,28.64.33,57.32-.99,85.93.72,25.79,1.54,43.5,16.81,48.53,41.17,4.7,22.76-2.67,50.27-28.77,61.77-3.64,1.6-1.92,3.28-.89,5.24,9.58,18.23,19.17,36.46,28.74,54.71.82,1.57,1.53,3.2,2.52,5.29Z"/>
        <path class="cls-45" d="M61.13.54c7.34.07,14.61.64,21.79,2.35,19.32,4.59,30.69,17.11,33.37,36.88q1.17,8.66-7.49,8.74c-5.33.04-10.66.06-15.99.06-1.66,0-3.04.1-3.54-2.35-2.78-13.7-6.99-17.93-20.35-19.85-7.76-1.12-15.6-1.12-23.24,1.33-9.5,3.05-14.77,9.38-15.1,18.24-.3,8.17,3.99,14.23,13.08,18.08,11.55,4.89,24.03,6.45,36.01,9.78,5.45,1.51,10.84,3.15,16.04,5.37,23,9.81,30.65,27.47,26.89,51.37-3.36,21.3-17.44,35.22-38.85,39.59-17.07,3.48-34.14,2.93-50.83-2.23C12.98,161.71.59,144.73,0,123.82c-.08-2.78.76-3.37,3.28-3.35,7.33.06,14.66-.06,21.98-.16,1.86-.03,2.84.22,3.2,2.57,2.21,14.38,7.49,19.87,21.93,22.29,10.07,1.69,20.24,1.94,30.13-1.34,9.62-3.19,14.79-9.8,15.42-19.34.56-8.49-3.69-14.91-13.17-19.19-10.84-4.9-22.68-6.27-34.04-9.36-5.44-1.48-10.85-3.11-16.17-4.96C5.53,81.62-1.1,59.7,3.82,36.02,7.79,16.89,21.9,5.12,42.71,1.89c6.11-.95,12.25-1.3,18.41-1.35Z"/>
        <path class="cls-45" d="M843.96,362.9c-12.09.32-23.96-.94-35.05-6.12-17.76-8.3-25.89-23.01-27.44-41.99-.18-2.28.69-2.86,2.82-2.83,7.49.1,14.99.15,22.48.02,2.43-.04,3,.92,3.28,3.15,1.61,12.74,6.92,18.33,19.58,20.97,9.91,2.07,19.82,2.34,29.68-.24,9.92-2.6,16.19-9.4,16.87-18.05.8-10.22-3.34-16.78-13.69-21.32-11.2-4.91-23.35-6.38-35.05-9.49-5.78-1.54-11.45-3.34-16.96-5.72-21.53-9.29-28.63-26.76-25.79-48.77,2.87-22.2,15.9-34.8,38.04-38.84,14.97-2.73,29.85-2.1,44.45,2.24,17.88,5.31,27.47,17.78,29.99,35.96,1.14,8.22,1.01,8.23-7.42,8.21-5.33,0-10.66-.06-15.99.06-2.28.05-3.36-.29-3.84-3.05-2.03-11.67-6.64-16.09-18.38-18.51-8.11-1.67-16.23-1.98-24.2.5-7.53,2.35-13.49,6.66-15.12,14.98-1.85,9.42,1.8,16.54,10.62,20.87,10.71,5.25,22.5,6.9,33.89,9.83,8.05,2.07,16.04,4.28,23.5,8.04,16.49,8.31,24.16,22.57,23.53,41.05-1.11,32.5-23.85,47.55-50.34,49.02-3.15.17-6.33.02-9.49.02Z"/>
        <path class="cls-45" d="M353.65,138.06c3.04-8.38,6.82-16.09,10.52-23.85,1.08-2.26,3-1.74,4.73-1.75,10.16-.06,20.32-.05,30.48-.07,2.48,0,4.96,0,7.83,0-.51-1.65-.75-2.76-1.19-3.8-8.54-20.16-17.1-40.31-25.85-60.91-2.21,2.09-2.82,4.49-3.81,6.62-17.1,36.74-33.36,73.84-48.92,111.25-1.42,3.42-3.1,4.77-6.88,4.62-7.97-.32-15.96-.1-23.8-.1-.72-1.03-.16-1.69.18-2.44,24.13-53.92,48.29-107.84,72.3-161.82,1.43-3.22,3.23-3.92,6.59-4.45,9.86-1.54,14.27,2.61,18.14,11.63,21.77,50.81,44.32,101.28,66.59,151.88,2.32,5.28,2.29,5.28-3.63,5.26-6.5-.02-13-.25-19.48.04-3.85.17-5.92-.89-7.3-4.76-2.67-7.49-6.14-14.7-9.01-22.13-1.44-3.73-3.45-5.17-7.71-5.1-18.65.3-37.3.14-55.96.13-1.14,0-2.28-.15-3.81-.25Z"/>
        <path class="cls-45" d="M658.71,277.05c0-25.81.08-51.63-.09-77.44-.02-3.58.54-4.81,4.51-4.79,32.81.15,65.62.11,98.42-.08,3.79-.02,4.89.97,4.65,4.71-.33,5.14-.32,10.34,0,15.48.24,3.86-.83,5.06-4.88,5.02-23.98-.23-47.96,0-71.94-.31-4.79-.06-5.67,1.48-5.57,5.77.27,11.65.28,23.32.03,34.97-.08,3.69.74,4.7,4.57,4.66,22.65-.22,45.3-.02,67.95-.24,3.98-.04,5.16,1.03,4.9,4.94-.33,4.97-.27,10,.03,14.98.21,3.39-1.01,4.14-4.21,4.12-22.65-.15-45.3,0-67.95-.25-4.08-.04-5.33.83-5.23,5.07.31,12.48.23,24.98.05,37.47-.05,3.23.84,4.12,4.11,4.11,24.65-.13,49.3.05,73.94-.12,3.9-.03,5.3.83,5.03,4.9-.35,5.14-.29,10.33.04,15.48.23,3.63-.67,4.85-4.58,4.82-33.14-.21-66.28-.23-99.42-.16-3.27,0-4.11-.9-4.09-4.15.14-26.31.08-52.63.08-78.94h-.34Z"/>
        <path class="cls-45" d="M279.45,85.92c0,26.32-.14,52.65.13,78.97.05,4.61-1.34,5.57-5.54,5.33-5.64-.33-11.33-.19-16.99.08-3.1.15-3.89-.82-3.87-3.9.15-20.16-.03-40.32.19-60.48.04-4.03-.79-5.33-5.1-5.28-20.32.24-40.65.02-60.98.16-3.43.02-4.68-.82-4.48-4.39.3-5.31.3-10.67.02-15.99-.18-3.54,1.05-4.45,4.49-4.43,20.16.15,40.32-.09,60.48.19,4.72.07,5.6-1.44,5.55-5.8-.23-21.49-.01-42.98-.22-64.48-.04-3.78.92-4.89,4.67-4.69,5.81.31,11.67.28,17.48-.03,3.46-.19,4.11,1.1,4.09,4.25-.11,26.82-.06,53.65-.06,80.47h.12Z"/>
        <path class="cls-45" d="M800.08,92.96c-31.63,0-63.27-.07-94.9.09-3.77.02-4.91-.94-4.71-4.7.31-5.81.36-11.67-.06-17.47-.32-4.38.96-5.61,5.41-5.57,24.14.19,48.28.04,72.42.02,38.79-.03,77.59,0,116.38-.17,3.97-.02,5.61.79,5.35,5.1-.36,6.14-.28,12.32,0,18.47.16,3.55-1.05,4.41-4.49,4.4-31.8-.13-63.6-.08-95.4-.08v-.09Z"/>
        <path class="cls-44" d="M168.29,86.45c0,26.47-.06,52.94.07,79.41.02,3.37-.69,4.69-4.32,4.52-5.98-.28-11.98-.1-17.97.04-2.56.06-3.84-.35-3.83-3.46.05-54.1-.01-108.21-.12-162.31,0-2.32.56-3.25,3-3.21,6.49.13,13,.3,19.47-.03,3.99-.2,3.69,2.02,3.69,4.63-.03,26.8-.02,53.6-.02,80.41h.04Z"/>
        <g>
          <path class="cls-44" d="M221.57,201.9c0-1,0-1.99-.01-2.99,0-.59-.01-1.18-.02-1.77,0-.82-.01-1.65-.02-2.47-28.65.04-57.29.07-85.94.1-.84,0-1.67.04-2.5,0-1.64-.09-2.45.56-2.41,2.3.33,14.13-.48,28.27.58,42.39-.07.15-.21.3-.21.45,0,10.6.02,21.21.03,31.82-9.55,0-19.1-.01-28.65-.01v-.04c-31.27,0-62.55.07-93.82-.07-5.49-.02-7.6.62-7.36,4.04.51,6.98.51,13.99.02,20.97-.23,3.27,1.87,3.88,7,3.81,12.85-.17,25.72-.05,38.58-.04,28.09.02,56.17.02,84.26.05.01,18.97.02,37.94,0,56.91,0,2.39,1.06,2.68,3,2.67,8-.06,16-.12,23.99.06,2.74.06,3.32-.91,3.28-3.45-.14-10.5-.08-20.99-.1-31.49-.01-8.22-.03-16.44-.04-24.66,10.97.02,21.95.04,32.92.08,2.05,0,3.64-.09,4.84-.37,7.51,0,15.02.03,22.53.01,0-9.47,0-18.94,0-28.41-8.01,0-16.02-.01-24.03-.04-.87-.07-1.87-.09-3.01-.09-3.61.02-7.21.02-10.82.03-.98,0-1.95,0-2.93-.01-.35,0-.67,0-.98.02-6.19.01-12.38.03-18.57.03-.02-14.36-.04-28.72-.05-43.07,0-2.26-1.01-4.9,3.34-4.88,19.03.1,38.06.1,57.09.12.01-4.38.02-8.76.03-13.14v-1.74c0-1.81,0-3.63,0-5.44,0-.56,0-1.11-.01-1.67Z"/>
          <path class="cls-44" d="M467.94,354.76c-21.5-49.49-43.29-98.86-64.28-148.57-3.85-9.12-8.09-13.72-18.28-12.05-3.2.53-4.87,1.2-6.21,4.23-19.9,44.92-39.94,89.78-59.92,134.67-3.86,8.66-7.59,17.37-11.68,26.74-1.01-1.91-1.65-3.03-2.2-4.2-7.76-16.35-15.5-32.71-23.25-49.07q-2.96-6.25,3.59-8.28c24.46-7.58,39.32-32.5,35.14-58.92-3.78-23.87-15.81-37.28-38.49-42.91-6.52-1.62-13.18-1.79-19.85-1.78-4.07.01-8.13.01-12.2.02-.01.2-.01.39-.01.59v.97c-.01,2.01-.02,4.03-.01,6.04-.01.63-.02,1.26-.01,1.89-.01.86-.01,1.73-.01,2.6,0,.52,0,1.04,0,1.57-.02,5.21-.03,10.42-.03,15.63,6.24.02,12.47.04,18.7.07,11,.05,19.51,7.48,21.51,17.98,3.34,17.48-6.95,29.84-24.74,29.81-5.16,0-10.31,0-15.47,0,.01,5.04.01,10.07.01,15.11h-.04c0,6.28,0,12.55,0,18.83.05.1.09.2.14.3,7.04,15.74,14.54,31.27,21.86,46.88.96,5.26,3.52,7.48,9.43,7.32,16.44-.46,32.91-.27,49.37.02,3.96.07,5.8-1.13,7.36-4.75,14.51-33.72,29.19-67.35,43.9-100.98,2.09-4.8,3.91-9.77,7.43-15.05,9.16,21.77,17.98,42.75,27.06,64.33-13.14,0-25.43-.02-37.72.03-1.56.01-3.59-.76-4.49,1.22-3.7,8.1-7.89,15.99-11.05,24.87,19.93,0,39.24.22,58.55-.15,4.72-.09,6.69,1.57,8.18,5.63,2.7,7.32,5.94,14.43,8.7,21.72.87,2.29,2.03,3.03,4.37,2.99,7-.12,14-.02,20.99-.03,5.9-.01,5.95-.04,3.66-5.31Z"/>
        </g>
        <path class="cls-3" d="M802.17,131.97c0,11.31,0,22.62,0,33.94-.35,4.31-3.45,4.01-6.52,4.01-33.81-.02-67.61.02-101.42-.03-19.31-.03-38.63.25-57.94-.17-2.61-3.52-.98-6.42,4.59-8.15,41.53-.32,83.06-.03,124.59-.15,8.8-.03,17.6.26,26.39-.18,1.23-.66,1.31-1.84,1.29-3.02-.1-8.49.35-16.98-.24-25.46,2.89-2.6,6.12-1.17,9.26-.77Z"/>
        <path class="cls-2" d="M773.18,145.92c2.11-.07,4.25.04,6.33-.25,4.38-.61,5.47,1.41,4.56,5.26-.39,2.01-.77,3.54-3.63,3.53-41.92-.12-83.85-.06-125.77-.09-.82,0-1.68.06-2.64-1.48,4.33-1.27,8.62-2.64,11.4-6.36,34.79-.24,69.57-.03,104.36-.13,1.79,0,3.66.47,5.39-.48Z"/>
        <path class="cls-1" d="M792.76,161.85c-48.22,0-96.44.02-144.66-.12-2.68,0-5.32,1.4-8.01.22-2.74-5.15-.98-10.67-1.3-16.02-.31-6.38.17-12.76,0-19.14-.17-14.6,0-29.2,0-43.8.03-14.91.02-29.82,0-44.72-.03-5.98.07-11.97.02-17.96-.07-2.49.24-5.01-.39-7.47-.65-3.76,1.37-5.15,4.74-5.37,1.5-.1,3-.11,4.49-.11,45.47,0,90.94-.01,136.41,0,10.19,0,10.68.53,10.71,10.73.01,3.5-.02,7,.04,10.49.07,3.67,1.65,5.28,5.36,4.07,2.02-1.38,1.58-3.5,1.59-5.44.03-7.12-.01-14.24.03-21.36.01-1.96-.27-4.01,1.05-5.74,1.65.67,1.32,2.14,1.32,3.42.02,9.49-.08,18.98.07,28.47.05,3.05-1.02,4.01-4.04,4.06-8.03.14-8.02.27-8.02-7.51,0-4.83-.13-9.66.04-14.48.1-2.93-.77-4.12-3.93-4.12-47.78.08-95.57.09-143.35,0-3.85,0-3.76,2.08-3.75,4.77.03,26.81.01,53.61.01,80.42,0,20.15.09,40.29-.08,60.44-.03,3.97.83,5.47,5.17,5.46,46.95-.15,93.9-.13,140.85-.01,3.88,0,5.32-.97,5.1-5.02-.33-5.98-.09-11.98-.09-17.98,0-7.72,2.24-9.07,10.01-6.01-3.02.39-6.23-1.12-9.09.88.74,9.67,1.41,19.35-.32,28.99Z"/>
        <path class="cls-1" d="M648.43,154.81c-1.87-1.11-1.19-2.96-1.19-4.52-.04-43.16.01-86.32-.14-129.48-.01-4.07,1.28-5.02,5.13-5.01,42.99.12,85.98.18,128.98-.03,5.11-.02,4.92,2.43,5.14,6.08.26,4.4-1.55,5.19-5.5,5.18-40.83-.13-81.65-.08-122.48-.09-.41-.65-.29-1.18.35-1.6,2.65-1.38,5.54-.98,8.34-.98,35.82-.03,71.65-.02,107.47-.02,1.83,0,3.67.08,5.49-.13,1.82-.21,3.24-.84,3.17-3.04-.06-2.03-1.5-2.36-3.07-2.54-1.16-.13-2.33-.11-3.5-.11-39.82,0-79.64-.01-119.46,0-6.7,0-6.77.11-7.39,5.81-.3,2.43.11,4.87-.13,7.3-.08,2.08.13,4.16-.02,6.23-.02,2.07.14,4.13,0,6.2-.02,2.98.17,5.96.06,8.93-.2,4.21.17,8.43.03,12.64-.24,1.8.08,3.61-.04,5.41-.25,3.62.17,7.23.03,10.85-.22,3.64.21,7.28-.05,10.92.07,2.46.15,4.91.02,7.37.18,7.19-.1,14.38.03,21.57.27,4.97-.27,9.94-.02,14.91.23,3.67-.26,7.34-.02,11.01-.02,2.44.38,4.95-1.23,7.12Z"/>
        <path class="cls-5" d="M635.21,168.9c53.5,0,107.01,0,160.51.02,2.69,0,5.37.29,6.45-3.02.57,2.98.51,4.97-3.68,4.96-55.09-.12-110.18-.07-165.27-.09-.65,0-1.3-.21-1.95-.32-1.05-1.88-.32-3.92-.54-5.87.12-2.86-.25-5.73.21-8.57,3.49,0,2.26,2.82,2.62,4.57.57,2.77-.73,5.9,1.65,8.31Z"/>
        <path class="cls-41" d="M648.43,154.81c.02-2.33.03-4.66.05-6.99-.72-6.21,3.71-4.64,7.08-4.7.68.2,1.24.57,1.67,1.13.35.56.53,1.24,1.19,1.57.28-.09.55-.05.8.1,1.13,1.11,2.85-.1,3.99.99-1.65,1.59-1.49,3.46-.38,5.93h-10.23c1.84,1.5,3.17,1.03,4.39,1.03,40.39.03,80.77,0,121.16.07,2.64,0,4.9-.14,5.93-3.01.68,2.92-.14,4.1-3.46,4.09-44.06-.15-88.13-.17-132.19-.22Z"/>
        <path class="cls-20" d="M658.42,145.82c-.43-.34-.86-.68-1.3-1.01-1.86-3.21-1.57-6.74-.98-10.08.43-2.43.51-4.83.6-7.25-.14,1.63.03,3.27-.1,4.91-2.26,2.33-4.41,1.9-6.8.38-.31.92,1.54,3.33-1.36,4.05v-15c.44-1.27.25-2.59.23-3.88-.04-1.95-.16-3.58,2.8-2.87,3.45.82,3.32-2.2,3.94-4.29.8-7.85.16-15.71.35-23.55.08-2.31-.1-4.62-.06-6.93.2-2.73.05-5.47.13-8.21.04-1.05.14-2.09.54-3.08.23-.49.61-.81,1.13-.94.12,17.12.17,34.24.38,51.36.11,8.8-.62,17.61.49,26.39Z"/>
        <path class="cls-30" d="M802.85.09c.84,11.16.22,22.34.39,33.5.01.72-.28,1.24-1.07,1.33-1.7-1.93-1.56-4.31-1.58-6.63-.06-6.82-.11-13.64,0-20.45.06-3.82-1.5-5.43-5.3-5.34-4.32.1-8.64.02-12.97.01-50.04-.03-100.09.05-150.13-.03-.67-.02-1.28-.22-1.83-.58-.33-2.19,1.25-1.9,2.54-1.91,3.67-.02,7.33,0,11,0,52.98.03,105.96.05,158.94.08Z"/>
        <path class="cls-43" d="M663.2,146.92c-1.37-.16-2.94.46-3.99-.99,5.97-.07,11.93-.21,17.9-.21,30.2-.03,60.41-.03,90.61-.02,1.82,0,3.64.15,5.46.23-1.65,1.71-3.78.95-5.68.95-34.77.05-69.53.04-104.3.04Z"/>
        <path class="cls-27" d="M631.25,155.97c-.02,2.97-.04,5.94-.06,8.92-.22,0-.44-.02-.65-.03-.06-17.29-.16-34.58-.16-51.86,0-19.62.11-39.23.18-58.85.6-.25,1.04-.09,1.34.49.94,2.13.51,4.41.72,6.62-.07,2.02-.03,4.03-.02,6.05.01,4.81-.07,9.61.06,14.41.16,1.84,0,3.67-.04,5.51,0,6.83-.09,13.67.06,20.5.23,3.41-.15,6.82-.07,10.23.02,5.28.25,10.56.1,15.84-.23,4.03.21,8.07-.03,12.11-.33,3.38.98,6.99-1.44,10.07Z"/>
        <path class="cls-32" d="M657.55,68.07s-.24-.12-.24-.12c-2.24-2.32-1.39-5.24-1.58-7.96.3-3.62-.13-7.25,0-10.88.2-2.67.11-5.33.03-8,.23-2.61-.03-5.23.02-7.85.17-1.72-.04-3.47.29-5.19.41-1.02.5-2.41,2.2-2-.02.29.02.58.11.86-.17,11.57-.32,23.14-.51,34.7-.03,2.14-.2,4.28-.31,6.43Z"/>
        <path class="cls-1" d="M749.02,14.72h-25.59c3.04-2.36,5.53-1.68,8.21-1.22,2.9.49,5.92.36,8.88.42,2.79.06,5.58.01,8.37.01.04.26.08.52.13.79Z"/>
        <path class="cls-29" d="M631.13,54.03c-.2-.01-.39.02-.57.11-.06-10.06-.12-20.13-.17-30.2.58-.27,1.04-.13,1.38.41.57,1,.7,2.1.75,3.22.06,2.79.04,5.58.07,8.38,0,2,0,3.99,0,5.99-.01,2.05,0,4.09,0,6.14-.16,2.06.37,4.3-1.46,5.94Z"/>
        <path class="cls-8" d="M631.1,24.04c-.24-.04-.47-.08-.71-.1,0-7.34,0-14.68,0-22.03.26.02.51.03.77.05,2.59,3.14,1.35,6.87,1.56,10.36.13,2.11-.15,4.24-.04,6.36,0,1.93.07,3.89-1.56,5.34Z"/>
        <path class="cls-40" d="M630.54,164.86c.22.03.44.04.65.03.02,1.86.05,3.72.07,5.57-1.92-1.65-.69-3.71-.73-5.6Z"/>
        <path class="cls-37" d="M537.1,81.53c-8.66,0-17.31-.08-25.97.05-2.71.04-3.79-.64-3.76-3.61.13-14.82.1-29.63-.02-44.45-.02-2.66.85-3.44,3.42-3.42,17.15.1,34.3-.17,51.44.18,9.5.2,17.65,3.86,21.94,13.02,4.55,9.7,4.26,19.36-1.83,28.44-3.73,5.57-9.12,8.99-15.78,9.25-9.8.39-19.63.1-29.44.1,0,.15,0,.29,0,.44Z"/>
        <path class="cls-40" d="M631.25,155.97l-.02-10.08c2.17-.85,4.68.1,6.8-1.7,1.52-1.3,1.5.75,1.87,1.63.06,5.37.12,10.75.19,16.12-1.4,2.48-4.8,3.56-4.88,6.96-2.47.21-2.93-1.16-3.06-3.33-.2-3.2,1.04-6.56-.9-9.6Z"/>
        <path class="cls-4" d="M792.76,161.85c.11-9.66.22-19.33.32-28.99,1.76,1.41,1.05,3.39,1.07,5.13.08,6.49.07,12.99,0,19.48-.02,1.55.66,3.43-1.4,4.38Z"/>
        <path class="cls-14" d="M631.33,18.83c-.06-5.62-.12-11.24-.19-16.86,1.49-1.6,3.44-.95,5.19-.95,53.29-.03,106.57.05,159.86-.11,4.78-.01,6.3,1.18,6.09,6.05-.39,9.31-.12,18.65-.12,27.97q-8.87.79-8.87-7.93c0-4.33-.31-8.68.06-12.98.37-4.19-1.4-4.86-5.11-4.84-36.62.13-73.25.09-109.87.11-11.99,0-23.97.1-35.96,0-3.14-.03-3.91.92-2.35,3.65-.78.95.03,2.35-.9,3.26-3.07-.48-5.48,1.03-7.85,2.64Z"/>
        <path class="cls-16" d="M631.27,117.93c.01-3.39.02-6.77.03-10.16,1.03-2.88-.07-5.92.63-8.82,2.69-1.85,4.81-1.22,6.46.22-.67-2.46-.59-6.23-.55-10,.13-1.85-.12-3.76.77-5.51.31-.49.76-.73,1.35-.71l-.12,43.94c-.49.16-.88.03-1.17-.38-1.15-3.07-.69-6.22-.45-9.36.03-.35.1-.66.06-.94-.09.14-.19.27-.3.43-1.61,1.44-4.04-.53-5.51,1.39-.42.24-.82.22-1.2-.09Z"/>
        <path class="cls-39" d="M639.21,126.9c.21,0,.42,0,.63-.02.02,6.31.04,12.62.06,18.94-.47-.33-.94-.67-1.42-1-1.91,3.77-4.65,1.96-7.26,1.07,0-3.99.01-7.98.02-11.97,2.03.33,4.07.92,6.05-.14,1.67-2.02-.32-5.04,1.91-6.89Z"/>
        <path class="cls-8" d="M631.41,41.9c0-2.05,0-4.1-.01-6.16.77-1.31-.23-3.01.91-4.24,2.27-1.29,4.4-.79,6.65.78-.88-1.22-1.03-2.32-1.07-3.47,0-1.55-.04-3.09-.01-4.64.06-1.34.1-2.69.81-3.9.36-.51.82-.63,1.39-.37-.01,6.02-.03,12.04-.04,18.07-.28.64-.56,1.29-1.44,1.26-2.01-.49-4.31-2.18-5.35,1.3-.14.44-.36.84-.62,1.22-.37.35-.77.39-1.21.14Z"/>
        <path class="cls-23" d="M639.27,38.97c.26-.33.51-.66.76-.99-.02,14.99-.05,29.97-.07,44.96,0,0-.37,0-.37,0h-.37c-.2-.2-.4-.41-.61-.62-1.23-2.76-.6-5.7-.83-8.56.14-2.59-.01-5.19-.03-7.78.15-2.03.04-4.07,0-6.1.2-2.63-.07-5.27-.02-7.9.24-2.65-.06-5.31.01-7.96.18-1.78,0-3.66,1.51-5.05Z"/>
        <path class="cls-12" d="M640.07,19.92c-.27.02-.54.03-.81.05-1.21-1.33-1.25-2.68-.07-4.05.06-1.07-.15-2.21.9-2.98,0,2.33-.01,4.66-.02,6.99Z"/>
        <path class="cls-13" d="M658.25,26.08c-1.18-.02-1.09.95-1.31,1.68-3.46.83-6.57.58-8.64-2.84-.52-8.46-.52-8.43,7.87-8.41,41.62.08,83.23.12,124.85.25,1.45,0,3.78-1.09,4.24,1.17.49,2.39.57,5.08-.04,7.41-.37,1.41-2.7.67-4.13.67-23.8.03-47.61,0-71.41,0-17.14,0-34.29.04-51.43.06Z"/>
        <path class="cls-17" d="M656.2,111.91c-.45,5.31-1.4,5.89-6.49,3.91-1.32,1.8.39,4.26-1.24,5.99,0-7.27-.01-14.54-.02-21.82,2.14,2.59,6.42.46,8.24,3.75-.24,2.72.52,5.49-.49,8.16Z"/>
        <path class="cls-34" d="M656.98,59.61c.11,2.78.21,5.56.32,8.34-.06.97-.12,1.94-.19,2.91-2.32-1.13-4.15-3.34-7.22-2.74-1.23.24-1.02-1.42-1.53-2.16,0-4.33-.02-8.67-.02-13,1.23-.68.8,1.23,1.88,1.12,6.12-.64,6.15-.58,6.77,5.54Z"/>
        <path class="cls-7" d="M656.98,59.61c-1.11-3.6-2.32-7.04-7.07-3.71-.53-.98-1.05-1.97-1.58-2.95,0-3,0-6-.01-9.01.49-.16,1.03.12,1.44,0q6.65-1.97,7.19,4.78c.01,3.63.02,7.26.04,10.89Z"/>
        <path class="cls-42" d="M648.48,136.81c1.33-1.37.33-3.19,1.09-5.12,1.93,2.2,4.46.2,6.64,1.22.77,3.66.78,7.33,0,10.99-2.17-1.3-4.39,3.3-6.53-.06-1.03,1.13.14,2.93-1.19,3.97,0-3.67,0-7.34,0-11Z"/>
        <path class="cls-18" d="M657.11,79.83l-.02,7.21c-.44.2-.86.15-1.26-.11-1.21-1.19-2.73-2.1-4.35-1.83-2.79.46-2.7-1.46-3.07-3.13-.01-3.67-.02-7.33-.04-11,2.64.54,1.48,2.26,1.16,3.73,1.35-1.77,3.3-1.47,5-1.09,3.6.8,1.32,4.29,2.59,6.22Z"/>
        <path class="cls-28" d="M648.4,81.97c.66,2.98,3.52,2.05,5.11,2.2,2.23.2,2.89.75,2.7,2.76.95,1.89.37,3.88.37,5.83-2.64,3.58-5.38,2.41-8.14.16-.01-3.65-.02-7.3-.04-10.95Z"/>
        <path class="cls-21" d="M648.43,92.91c2.59-.02,5.18,2.07,7.77,0,.8,3.33.8,6.66,0,9.99-2.67-.73-6.78,2.34-7.75-2.92,0-2.36-.01-4.72-.02-7.08Z"/>
        <path class="cls-33" d="M657.11,79.83c-.7-3.74-2.09-6.47-6.78-5.25-.32.08-1.3-2.35-1.97-3.61,0-1.67,0-3.34,0-5.01.79.42,1.08,1.74,2.4,1.24,3.58-1.35,5.36.51,6.36,3.67,0,2.99,0,5.98,0,8.97Z"/>
        <path class="cls-36" d="M656.95,48.72c-.55-4.83-2.53-6.81-7.2-3.68-.16.11-.94-.72-1.43-1.1,0-2,0-4.01,0-6.01.84-.55,1.78-.86,2.75-1.13,4.86-1.35,5.22-1.11,5.86,3.91,0,2.67.01,5.34.02,8Z"/>
        <path class="cls-9" d="M656.93,40.72c-.66-3.05-2.08-4.59-5.33-2.82-1.02.56-2.18.75-3.28.03,0-2,0-4,0-6,1.74-1.06,3.76-1.09,5.67-1.52,1.94-.43,2.67.67,2.95,2.34,0,2.66,0,5.31-.01,7.97Z"/>
        <path class="cls-11" d="M656.94,32.75c-.95-1.18-1.84-1.7-3.6-1.12-1.5.5-3.3,1.35-5.03.29,0-2.34,0-4.67-.01-7.01,2.49,2.12,5.86,1.58,8.64,2.84,0,1.66,0,3.33,0,4.99Z"/>
        <path class="cls-38" d="M656.2,143.9c0-3.66,0-7.33,0-10.99,0-2.93,0-5.85,0-8.78.31,0,.61,0,.92,0,0,6.89,0,13.79,0,20.68-.31-.3-.62-.6-.92-.9Z"/>
        <path class="cls-22" d="M656.2,102.91c0-3.33,0-6.66,0-9.99,0-2,0-4,0-6,.3,0,.59.03.88.1.03,7.08.06,14.15.07,21.23,0,1.29.27,2.67-.96,3.65,0-3,0-6,0-8.99Z"/>
        <path class="cls-19" d="M638.21,134.9c-2.31-.43-5.2,3.3-6.96-.98,0-5.33.02-10.66.03-15.99.31-.01.63-.02.94-.02,1.12.97,2.13,2.04,3.91,1.57,1.49-.39,2.67.04,2.57,1.96-.29,4.49.57,9.01-.5,13.46Z"/>
        <path class="cls-23" d="M639.23,82.94c0,1.99-.02,3.99-.02,5.98-1.97-2.33-4.78.8-6.83-1.05-.38-.27-.75-.56-1.1-.86v-5.17c1.17-1.97-.34-4.37,1.02-6.3,5.34-.59,6.15.03,6.39,5,.04.81-.07,1.64.49,2.34l.05.07Z"/>
        <path class="cls-31" d="M632.21,75.92c-.33,1.97.78,4.17-.93,5.92-.02-4.97-.03-9.94-.05-14.9,1.13-1.38-.19-3.53,1.75-4.78,3.21-2.08,5.24-.93,6.21,3.76,0,2.66,0,5.31-.01,7.97-.33.16-.63.16-.9,0-1.63-.92-.87-4.53-3.56-3.82-2.28.6-.76,3.54-1.89,5.11-.19.26-.37.52-.61.75Z"/>
        <path class="cls-29" d="M639.19,65.91c-1.78-.46.21-3.85-3.07-3.55-3.16.29-3.84,2.45-4.89,4.57.02-2.04.03-4.09.05-6.13,1.06-1.58-.11-3.53.84-5.12,5.84-1,6.07-.87,7.06,4.19,0,2.01,0,4.02.01,6.04Z"/>
        <path class="cls-24" d="M631.28,87.01c.31-.06.62-.08.93-.08,2.24,3.99,2.24,7.99,0,11.99-.45,2.94.96,6.07-.91,8.86,0-6.92-.02-13.84-.03-20.76Z"/>
        <path class="cls-47" d="M632.21,55.93c-.27,1.64.66,3.5-.94,4.88-.05-2.26-.09-4.52-.14-6.78.1-2.06.19-4.12.29-6.18.29-.01.58-.03.87-.04.19.22.37.45.56.67.94,2.58,1.12,5.11-.64,7.46Z"/>
        <path class="cls-15" d="M639.19,15.92c.02,1.35.05,2.7.07,4.05-.04,1.3-.07,2.6-.11,3.9-2.04.5-5.07-2.13-5.97,1.91-.16.44-.39.83-.68,1.19-.42.29-.82.25-1.21-.06-.06-.96-.13-1.91-.19-2.87.08-1.73.16-3.47.23-5.21,1.31-4.51,4.17-4.82,7.86-2.92Z"/>
        <path class="cls-30" d="M631.29,26.91c.31.01.61.02.92.02,1.51,1.67,1.25,3.34,0,5.01-.16,1.29.45,2.76-.81,3.81-.04-2.95-.07-5.89-.11-8.84Z"/>
        <path class="cls-10" d="M632.2,47.91c-.26,0-.52-.02-.77-.06,0-1.98,0-3.96-.01-5.95.27.01.53.02.8.02,1.64,2,1.64,3.99-.01,5.99Z"/>
        <path class="cls-26" d="M632.21,98.92c0-4,0-7.99,0-11.99,2.01,1.78,5.59-1.93,6.99,1.99v12.33c-2.03-2.43-4.52-2.34-6.99-2.34Z"/>
        <path class="cls-27" d="M638.19,119.91c-2.07-.44-5.97,4.59-5.98-2,.15-1.11-.52-2.83,1.85-2.16,1.32.37,2.71,1.12,4.12.18.75,1.33.75,2.66,0,3.99Z"/>
        <path class="cls-25" d="M638.19,119.91c0-1.33,0-2.66,0-3.99.03-.16.03-.33.1-.47.21-.5.82-.69.84-.16.11,3.87.07,7.73.09,11.6-.06,2.64-.11,5.28-.19,7.92,0,.09-.22.24-.35.25-.15,0-.31-.1-.46-.16,0-5-.01-9.99-.02-14.99Z"/>
        <path class="cls-47" d="M632.2,47.91c0-2,0-3.99.01-5.99,0-.33.01-.65,0-.98,3.22-1.08,6.28-1.78,7,2.99-.01,2.65-.03,5.31-.04,7.96-2.32-1.31-4.65-2.61-6.95-3.96l-.03-.03Z"/>
        <path class="cls-12" d="M632.21,31.93c0-1.67,0-3.34,0-5.01,2.99-1.83,5.5-1.9,6.91,1.92.65,3.12-.07,4.55-3.56,3.14-.97-.39-2.23-.06-3.35-.06Z"/>
        <path class="cls-30" d="M639.12,28.85c-1.76-2.59-4.46-1.84-6.91-1.92.33-1.63-.92-3.86,1.33-4.74,2.14-.84,4.14-.21,5.61,1.69-.01,1.66-.02,3.32-.03,4.98Z"/>
        <path class="cls-10" d="M639.22,43.93c-.97-4.18-5.04-1.13-7-2.99.2-1.37-.61-3.19,1.37-3.81,2.25-.71,4.2-.06,5.68,1.84-.01,1.66-.03,3.31-.05,4.97Z"/>
        <path class="cls-35" d="M632.21,75.92c0-1.31-.17-2.66.05-3.93.23-1.33-1.19-3.63,1.76-3.63,2.27,0,4.39.27,4.21,3.38-.05.86.21,1.62.95,2.14,0,3,0,6,0,9-1.1-3.54-1.72-7.57-6.97-6.95Z"/>
        <path class="cls-6" d="M632.22,47.94c2.9.29,6.33-.33,6.95,3.96,0,2.66,0,5.32,0,7.98-.93-3.77-3.9-3.94-6.96-3.95,0-2.66,0-5.33,0-7.99Z"/>
      </g>
    </g>
  </g>
</svg>